<svg version="1.2" xmlns="http://www.w3.org/2000/svg" viewBox="0 0 512 512" width="512" height="512">
	<title>Book-01</title>
	<style>
		.s0 { fill: #000000 } 
	</style>
	<g id="Layer 1">
		<g id="&lt;Group&gt;">
			<path id="&lt;Compound Path&gt;" class="s0" d="m504.4 127.5c8.4 12.1 10.3 25.2 5.6 40.1l-84.7 278.3c-3.7 13.1-12.1 24.2-23.3 33.5-12.1 9.3-24.2 13.1-37.2 13.1h-284c-15.8 0-30.7-5.6-45.6-16.8-14.9-11.2-25.1-24.2-30.7-40-4.7-14-5.6-27-0.9-39.1 0-1 0-3.7 0.9-8.4 0.9-4.7 0.9-8.4 0.9-11.2 0-1.8 0-3.7-0.9-6.5-0.9-2.8-0.9-4.6-0.9-5.6 0-1.8 0.9-4.6 2.8-6.5 0.9-1.9 2.7-4.6 4.6-7.4 1.9-2.8 3.7-5.6 4.7-7.5q6.9-11.2 13.9-27.9c4.7-11.2 7.5-20.5 9.3-27.9 1-1.9 1-5.6 0-9.4q-1.4-5.5 0-8.3c1-1.9 2.8-5.6 5.6-8.4 2.8-3.7 4.7-5.6 5.6-7.5 4.7-7.4 8.4-16.7 13-27.9 4.7-11.2 6.6-20.5 7.5-27.9 0-1.9 0-5.6-0.9-10.3q-1.4-6.9 0-8.3c0.9-2.8 2.8-5.6 6.5-9.3 3.7-3.8 5.6-5.6 6.5-6.6 3.7-5.6 8.4-13.9 13-26 4.7-12.1 7.5-22.4 8.4-29.8 0-1.9 0-4.7-0.9-7.5-1-3.7-1-6.5-1-8.4q0-2.7 2.8-5.5c1.9-1.9 3.8-4.7 5.6-7.5 1.9-2.8 3.7-4.6 5.6-6.5 1.9-2.8 3.7-5.6 4.7-9.3 1.8-3.7 3.7-7.5 4.6-11.2 0.9-3.7 2.8-7.4 4.7-11.2 1.8-3.7 3.7-7.4 5.6-10.2 1.8-2.8 4.6-4.6 8.3-7.4 3.8-1.9 7.5-3.8 11.2-3.8 3.7 0 9.3 0 14.9 1.9v0.9c7.5-1.8 13-2.8 15.8-2.8h233.7c14.9 0 27 5.6 35.4 16.8 8.4 11.2 10.2 25.1 5.6 40l-83.8 278.4q-11.2 36.3-22.4 47.5c-7.4 7.4-20.4 10.2-39.1 10.2h-266.2c-5.6 0-9.3 1.9-12.1 4.7-1.9 3.7-2.8 7.4 0 13 4.6 14 19.5 21.4 44.7 21.4h283.9c5.6 0 12.1-1.9 16.8-4.7 5.5-2.7 9.3-7.4 11.1-13l92.2-303.5c1.9-4.6 1.9-10.2 1.9-17.7 6.5 4.7 13 9.3 16.7 14.9zm-326.7 1c-1 2.8-1 4.6 0.9 6.5 0.9 1.8 3.7 2.8 6.5 2.8h187.1c2.8 0 5.6-1 7.5-2.8 1.8-1.9 4.6-4.7 4.6-6.5l6.5-19.6c1-2.8 1-4.6-0.9-6.5-1.9-1.9-3.7-2.8-6.5-2.8h-186.2c-2.8 0-5.6 0.9-7.4 2.8-2.8 1.9-4.7 4.6-4.7 6.5zm-25.1 78.2c-1 2.8-1 4.7 0.9 6.5 1.9 1.9 3.7 2.8 6.5 2.8h187.1c2.8 0 5.6-0.9 7.5-2.8 2.8-1.8 4.6-4.6 4.6-6.5l6.6-19.5c0.9-2.8 0.9-4.7-1-6.6-1.8-1.8-3.7-2.8-6.5-2.8h-187.1c-2.8 0-5.6 1-7.5 2.8-2.8 1.9-4.6 4.7-4.6 6.6z"/>
		</g>
	</g>
</svg>